PathFileType	4	(X/Y/Z)	34_2_81_p0_0-730_filt_butterworth.trc
DataRate	CameraRate	NumFrames	NumMarkers	Units	OrigDataRate	OrigDataStartFrame	OrigNumFrames
59.0	59.0	6	27	m	59.0	365	730
Frame#	Time	RHip			RKnee			RAnkle			RBigToe			RSmallToe			RHeel			LHip			LKnee			LAnkle			LBigToe			LSmallToe			LHeel			Neck			Head			Nose			RShoulder			RElbow			RWrist			RThumb			RIndex			RPinky			LShoulder			LElbow			LWrist			LThumb			LIndex			LPinky			
		X1	Y1	Z1	X2	Y2	Z2	X3	Y3	Z3	X4	Y4	Z4	X5	Y5	Z5	X6	Y6	Z6	X7	Y7	Z7	X8	Y8	Z8	X9	Y9	Z9	X10	Y10	Z10	X11	Y11	Z11	X12	Y12	Z12	X13	Y13	Z13	X14	Y14	Z14	X15	Y15	Z15	X16	Y16	Z16	X17	Y17	Z17	X18	Y18	Z18	X19	Y19	Z19	X20	Y20	Z20	X21	Y21	Z21	X22	Y22	Z22	X23	Y23	Z23	X24	Y24	Z24	X25	Y25	Z25	X26	Y26	Z26	X27	Y27	Z27	
365	6.186440677966102	0.3299526906980887	0.7155407056051858	0.6260261592645597	0.33912529525900603	0.3221363287260882	0.6439504070122587	0.3680476067502499	-0.03979995965376973	0.6812171221038881	0.33783245813620755	-0.060538857735260354	0.5516873852754959	0.4058532453414786	-0.06883608661409117	0.5699033937322823	0.35720815030236797	-0.1461867723570321	0.7893960559282669	0.1617204631380933	0.6876677178235179	0.7140079095613748	0.16031113032801794	0.27898097170117275	0.7191760420664886	0.17186266114900547	-0.0774402588453618	0.7451218446234327	0.18422079329272423	-0.029335836194616813	0.5318525404254484	0.13384680109188077	-0.06906028094712306	0.6116705708765612	0.19091550355452652	-0.12083992959427875	0.7733442970672695	0.23481257482019557	1.1353739110463477	0.7077165475521402	0.058301928644363954	1.3316292704954469	0.6788556313217164	0.11577001258457902	1.1770976697399393	0.6299746325776722	0.3556008153490069	1.1395137424493238	0.6712928544205223	0.36846648727897635	0.9745844649931518	0.49654222298712114	0.22122525710910118	1.0800437516532921	0.43576267740537467	0.13042526104656482	1.0923828610993762	0.4361979351699643	0.1119728638549495	1.0820947849133637	0.41511852996624043	0.12976880501256147	1.047412455871871	0.39766824424943115	0.12153580527247976	1.0722815641318764	0.7942362200681873	0.09478906915505932	0.8992210958440994	0.8127982978196471	0.0721679843639372	0.8363247363980606	0.6199232099189713	0.0957215173260996	0.8554773870051693	0.5119629247845355	0.07844052761705392	0.8289881384934982	0.49888320361656036	0.06418266955303363	0.7852922507321805	0.5106691489680393	
366	6.203389830508475	0.3303859392836149	0.7134922215306023	0.6262554736343032	0.3390507659860257	0.32078896822820513	0.6439350017766924	0.3676560899508875	-0.03967236301724568	0.6802139077792456	0.33830823051905323	-0.06171164158621757	0.5535733889635691	0.40647282153130637	-0.07155986656778925	0.5730394806808587	0.3572834459859662	-0.14677507527245268	0.7893417341668795	0.16223408038407533	0.685174963350905	0.7147908933480571	0.16040984398078428	0.27810500995265974	0.7192191403367367	0.17218076443986335	-0.07772802720824921	0.7456148840375258	0.1833961986657893	-0.03081291536317439	0.5341768198945603	0.13382698610629248	-0.06903073606744628	0.6117211437329121	0.19058449530343874	-0.12069635569981513	0.7731044493531289	0.2351381831096198	1.1359586233245198	0.7085422920289104	0.058083402817111385	1.3298707554976736	0.6787341943581078	0.11550122305157756	1.175937552191913	0.6300014898150517	0.3557178734118782	1.1344272264011175	0.6679142124864381	0.37219026422854395	0.96309653268887	0.5040360185787074	0.21294433149243855	1.0538500057244728	0.4231613368860285	0.11805558597280982	1.058279367050845	0.4326688620684173	0.10185843213229896	1.0393769934584747	0.4131258394009364	0.12245503752895492	1.0067776299487123	0.3970629212323306	0.12259333242847162	1.0695742182251011	0.7934552296354094	0.09322406606197074	0.8920330024013042	0.8092811282436065	0.08019351860266115	0.8261801138156164	0.6091224772030005	0.10628679180425149	0.8417970763837506	0.513664320275445	0.0876685186294931	0.8143490675149575	0.4983422593137009	0.07135100522129001	0.772854151765779	0.5091419616034928	
367	6.220338983050848	0.33094347883130093	0.7117540925642265	0.6265361294560088	0.3389983348612816	0.3195519387507454	0.643917614871708	0.36727435969918487	-0.039548307040609826	0.67925391992728	0.33864051531957534	-0.06256335003288435	0.5549407363118453	0.40710833243126465	-0.0743620058338621	0.5761386010760589	0.35738861681796846	-0.14707806352408132	0.7892958365251567	0.16286419032365898	0.6827425971300713	0.715517993720471	0.16053055719883622	0.277543997120961	0.7192739038308462	0.1725293980276647	-0.07795562044759899	0.7459470430490389	0.18229247035355117	-0.032738003406032376	0.5372314977337347	0.1337888325563181	-0.06899584566365932	0.6118251288786172	0.19017553041416174	-0.12053253662186479	0.7728120941476804	0.23527610331959165	1.1367090093256205	0.7099188916227727	0.05810653941070082	1.3284297826523332	0.679371043187412	0.11536396268855499	1.1742295368564781	0.6296531445918927	0.3556476518583297	1.1292306448039626	0.6658957338892053	0.37421193670700814	0.9544369018786849	0.5089117168226917	0.20370788653974123	1.0248913302410203	0.4161796582655496	0.10519924733917566	1.0198974795942553	0.4359422064748814	0.09240538047962046	0.994514809260242	0.4192453681808107	0.11638565097555506	0.965197092467658	0.39863625049878604	0.12356444788834074	1.067968599286249	0.7939784974094612	0.09314744009805445	0.8847575667054104	0.8086954785076741	0.08791084182565924	0.817558870100713	0.6014330255509241	0.11489740251285473	0.8300405266076923	0.5081181647951207	0.09525230627063444	0.8019913026806087	0.4934183695037574	0.07949085089310498	0.7639785846115961	0.5071250272928962	
368	6.237288135593221	0.3315095120991369	0.7103049500369504	0.626812684003875	0.33895487613167674	0.3184869950708227	0.6438842286600867	0.3669296565622851	-0.0394827831092911	0.6784379000441569	0.3386573001613502	-0.0627017334468025	0.5551555856353856	0.40757195063199936	-0.07662491493327876	0.5784118163585784	0.35752053592113353	-0.14713794266371005	0.7891357196032636	0.16359594421696766	0.6804296182121194	0.7161797569900956	0.160583836514859	0.2772431007137487	0.7193308782179022	0.17283011388212272	-0.07807131666024243	0.7459916831549899	0.18122320857180574	-0.03457279362713642	0.540158245976001	0.13374019580709479	-0.068960042236093	0.6119585637466756	0.18978189603065537	-0.12036770805467391	0.7725233116044458	0.2352409377139288	1.1371709783985724	0.7108157175722071	0.0586492835885995	1.3275123826027477	0.6803276957338658	0.11578110283902077	1.1724159956834364	0.6286747615026562	0.3553907787804526	1.1239539070414275	0.6648491055933572	0.3750880806468021	0.9482368666042259	0.5124214600379102	0.1945132330872944	0.9929426930693483	0.4156201513599175	0.09315549865724018	0.9778874392540076	0.444237179157979	0.08424249618855163	0.9493163908610238	0.43088886124631887	0.11254864761918326	0.9241283096562186	0.40026941669498817	0.12416665562792135	1.066983927194301	0.795747110225897	0.0941883445357096	0.8785058999702142	0.8104186938567601	0.09414644504606744	0.8104893563762365	0.5968493477277192	0.11992229601478747	0.8210309236562527	0.49496804719856474	0.10136595450461366	0.7936759224783909	0.48324832784865274	0.087873722099991	0.7585156633173175	0.5038498126433133	
369	6.254237288135593	0.3320188592079357	0.7091676153069559	0.6270555306171217	0.3389135537190456	0.317652377637918	0.6438207728497843	0.36663869117328135	-0.039497633746447824	0.6777825475376603	0.33830618527995016	-0.062018635586112446	0.5540517276128445	0.40770619667218355	-0.07778437423689341	0.5792755422246015	0.3576072498519704	-0.14709365289733298	0.7887622174802124	0.16441661539936886	0.6782755127332941	0.71677171390785	0.16053489514548766	0.27716386435026674	0.7193960828414485	0.17306117053557815	-0.07804568305041408	0.7457486340157735	0.18041815102691994	-0.03593041146276772	0.5423359382314562	0.13368985423902874	-0.06892932273009475	0.6120983726329056	0.18948968773212538	-0.12022672106201757	0.7722927414379362	0.23502349168691788	1.1370152892655754	0.7105195877179191	0.05978231827685483	1.3270946833562667	0.6807518130771755	0.1168362034536001	1.1709082502447459	0.6270092528519202	0.3549586153322228	1.1187877710966552	0.6640948679182869	0.3751030674360443	0.9433668407108567	0.5161203280867447	0.18653372885691222	0.9582590971218321	0.42112169928358967	0.08324675008073373	0.9341407140495168	0.45538006036890544	0.07746604343241531	0.9054656949072746	0.444904992107228	0.11143979420773288	0.8838069406304125	0.4025527310455509	0.12431364150710847	1.066082594709985	0.7981852149935038	0.09576354866392589	0.874145447454945	0.8123512099297637	0.09835096290307718	0.8044276132474106	0.5938602908090493	0.12075010939893596	0.8147166656404002	0.47665659676999267	0.10550416190880188	0.7894568939968656	0.46846138385661806	0.09540396710432933	0.7552295659390199	0.4981644648016691	
370	6.271186440677966	0.3325091515754153	0.7084258111844441	0.6272740528669447	0.33887811754218333	0.31707827076663136	0.6437200953443722	0.36642489768308845	-0.039597384551862236	0.6772684345094439	0.33769537696999796	-0.06076323517276698	0.5520343834201653	0.40746096021857503	-0.07753828911206098	0.5785216132801921	0.35756716684959194	-0.1470728228771181	0.7882435925514938	0.1653566601012153	0.6762861631245348	0.7172792919560734	0.1604234043267389	0.27729487468948066	0.7194820907817276	0.17323392422139364	-0.07787055590536698	0.7452530032183666	0.1799769998370166	-0.036653693164644535	0.5435027295408051	0.1336467409966673	-0.06890956220332131	0.6122249888831379	0.1893277036451877	-0.12012437300142097	0.7721440565793064	0.23462167345899748	1.1361500029515643	0.7089857870648618	0.06152335594556509	1.3270139461909103	0.6798090075388246	0.11837986342166873	1.1700364745625558	0.6248346500684272	0.3543473726428952	1.114208156357661	0.6629957914428495	0.37402108717018767	0.9387245513018279	0.5208409372515164	0.1806458891083661	0.9218396423459685	0.4317298728843548	0.07623213624189755	0.890776436343156	0.4675449122938681	0.07209549757991962	0.8639971875181349	0.45881988584120503	0.11339709540862403	0.8436997395353495	0.40835127458249215	0.12414420925630137	1.0648795382530025	0.800739678083062	0.09712052852084803	0.8717794474899211	0.8121698452916702	0.10060376614790792	0.7987099996423309	0.5903892107560719	0.11815288204408697	0.8098111297567828	0.45673642460651476	0.10698287825889405	0.7871895185973635	0.4512918978907736	0.10116247009428479	0.7521049189707744	0.489483326880569	
